<svg width="60" height="60" viewBox="0 0 60 60" fill="none" xmlns="http://www.w3.org/2000/svg">
<path d="M32.5887 21.3028C33.5652 20.3265 35.1685 20.3169 35.9702 21.4409C37.7205 23.8947 38.75 26.898 38.75 30.1418C38.75 33.3853 37.7205 36.3885 35.9702 38.8425C35.1685 39.9665 33.5652 39.9568 32.5887 38.9805C31.6125 38.0043 31.6465 36.4313 32.352 35.2445C33.24 33.7505 33.75 32.0058 33.75 30.1418C33.75 28.2778 33.24 26.5328 32.352 25.039C31.6465 23.8521 31.6125 22.2791 32.5887 21.3028Z" fill="#b8a0f2"/>
<path d="M39.6599 14.2329C40.6362 13.2566 42.2302 13.2494 43.1047 14.3178C46.6329 18.6279 48.7499 24.1382 48.7499 30.1428C48.7499 36.1475 46.6329 41.6578 43.1047 45.9678C42.2302 47.0363 40.6362 47.029 39.6599 46.0528C38.6834 45.0765 38.6979 43.5017 39.5457 42.412C42.1807 39.0245 43.7499 34.767 43.7499 30.1428C43.7499 25.5188 42.1807 21.2611 39.5457 17.8736C38.6979 16.7838 38.6834 15.2092 39.6599 14.2329Z" fill="#b8a0f2"/>
<path d="M27.5 41.4645V18.5355C27.5 16.3083 24.8071 15.1929 23.2322 16.7678L18.2322 21.7678C17.7634 22.2366 17.1275 22.5 16.4645 22.5H12.5C11.1193 22.5 10 23.6193 10 25V35C10 36.3808 11.1193 37.5 12.5 37.5H16.4645C17.1275 37.5 17.7634 37.7635 18.2322 38.2323L23.2322 43.2323C24.8071 44.8073 27.5 43.6918 27.5 41.4645Z" fill="#b8a0f2" stroke="#b8a0f2" stroke-width="5" stroke-linecap="round"/>
</svg>
