<svg width="61" height="61" viewBox="0 0 61 61" fill="none" xmlns="http://www.w3.org/2000/svg">
<path d="M27.9285 41.5927V18.6637C27.9285 16.4364 25.2357 15.321 23.6608 16.8959L18.6608 21.8959C18.1919 22.3648 17.556 22.6282 16.893 22.6282H12.9285C11.5478 22.6282 10.4285 23.7475 10.4285 25.1282V35.1282C10.4285 36.5089 11.5478 37.6282 12.9285 37.6282H16.893C17.556 37.6282 18.1919 37.8917 18.6608 38.3604L23.6608 43.3604C25.2357 44.9354 27.9285 43.8199 27.9285 41.5927Z" fill="#b8a0f2" stroke="#b8a0f2" stroke-width="5" stroke-linecap="round"/>
<path d="M50.4285 23.8782L37.9285 36.3782Z" fill="#b8a0f2"/>
<path d="M50.4285 23.8782L37.9285 36.3782" stroke="#b8a0f2" stroke-width="5" stroke-linecap="round"/>
<path d="M50.4285 36.3782L37.9285 23.8782Z" fill="#b8a0f2"/>
<path d="M50.4285 36.3782L37.9285 23.8782" stroke="#b8a0f2" stroke-width="5" stroke-linecap="round"/>
</svg>
